<?xml version="1.0" standalone="no"?><svg xmlns="http://www.w3.org/2000/svg" viewBox="0 0 1440 320"><path fill="#7957d5" fill-opacity="1" d="M0,32L26.7,53.3C53.3,75,107,117,160,144C213.3,171,267,181,320,160C373.3,139,427,85,480,80C533.3,75,587,117,640,144C693.3,171,747,181,800,160C853.3,139,907,85,960,64C1013.3,43,1067,53,1120,85.3C1173.3,117,1227,171,1280,165.3C1333.3,160,1387,96,1413,64L1440,32L1440,0L1413.3,0C1386.7,0,1333,0,1280,0C1226.7,0,1173,0,1120,0C1066.7,0,1013,0,960,0C906.7,0,853,0,800,0C746.7,0,693,0,640,0C586.7,0,533,0,480,0C426.7,0,373,0,320,0C266.7,0,213,0,160,0C106.7,0,53,0,27,0L0,0Z"></path></svg>